<svg width="522" height="62" viewBox="0 0 522 62" fill="none" xmlns="http://www.w3.org/2000/svg">
<path d="M412.791 55.0207C389.331 49.0738 365.507 50.3966 357 55.0207V20.214C399.734 -3.99937 478.772 -1.05677 522 6.08953C501.424 8.27546 487.872 14.6651 474.815 27.7807C460.251 42.4096 446.622 63.5963 412.791 55.0207Z" fill="#00D7D7"/>
<path d="M404.648 15.824C404.872 15.984 404.856 16.224 404.6 16.544C404.312 16.96 403.944 17.296 403.496 17.552C403.08 17.776 402.744 17.856 402.488 17.792C402.168 17.696 401.848 17.6 401.528 17.504C401.24 17.408 400.92 17.312 400.568 17.216C399.768 17.28 399 17.536 398.264 17.984C397.528 18.4 396.824 19.04 396.152 19.904C395.48 20.736 394.84 21.808 394.232 23.12C393.624 24.4 393.032 25.952 392.456 27.776C390.792 33.184 388.456 37.248 385.448 39.968C382.472 42.656 378.888 44 374.696 44C372.392 44 370.6 43.504 369.32 42.512C368.04 41.52 367.4 40.24 367.4 38.672C367.4 37.552 367.752 36.528 368.456 35.6C369.192 34.64 370.072 33.936 371.096 33.488C371.224 33.488 371.304 33.552 371.336 33.68C371.4 33.808 371.4 33.92 371.336 34.016C370.792 34.432 370.408 34.896 370.184 35.408C369.96 35.92 369.848 36.512 369.848 37.184C369.848 38.816 370.456 40.08 371.672 40.976C372.92 41.872 374.664 42.32 376.904 42.32C378.44 42.32 379.784 42.128 380.936 41.744C382.12 41.328 383.176 40.624 384.104 39.632C385.032 38.64 385.88 37.312 386.648 35.648C387.448 33.952 388.264 31.824 389.096 29.264C390.248 25.648 391.656 22.8 393.32 20.72C394.984 18.608 396.904 17.312 399.08 16.832C396.968 16.288 394.776 15.856 392.504 15.536C390.232 15.216 387.928 15.056 385.592 15.056C383.8 15.056 382.232 15.344 380.888 15.92C379.544 16.464 378.44 17.216 377.576 18.176C376.712 19.104 376.088 20.208 375.704 21.488C375.32 22.768 375.224 24.128 375.416 25.568C375.256 25.888 375.08 25.92 374.888 25.664C374.696 24.064 374.824 22.512 375.272 21.008C375.72 19.504 376.472 18.16 377.528 16.976C378.584 15.792 379.944 14.848 381.608 14.144C383.304 13.44 385.32 13.088 387.656 13.088C391.048 13.088 394.152 13.376 396.968 13.952C399.784 14.496 402.344 15.12 404.648 15.824ZM399.981 33.104C399.981 33.584 399.933 34.128 399.837 34.736C399.741 35.344 399.613 35.968 399.453 36.608C400.093 35.072 400.797 33.872 401.565 33.008C402.333 32.144 403.165 31.712 404.061 31.712C404.541 31.712 404.909 31.824 405.165 32.048C405.421 32.272 405.549 32.56 405.549 32.912C405.549 33.232 405.421 33.648 405.165 34.16C404.941 34.672 404.749 35.024 404.589 35.216C404.525 35.248 404.461 35.248 404.397 35.216C404.333 35.152 404.301 35.088 404.301 35.024C404.301 34.8 404.205 34.608 404.013 34.448C403.853 34.288 403.597 34.208 403.245 34.208C402.125 34.208 401.101 34.976 400.173 36.512C399.277 38.016 398.445 40.192 397.677 43.04C397.645 43.2 397.533 43.344 397.341 43.472C397.149 43.568 396.925 43.664 396.669 43.76C396.445 43.824 396.205 43.888 395.949 43.952C395.693 43.984 395.469 44 395.277 44C394.925 44 394.829 43.808 394.989 43.424C395.277 42.752 395.549 42.032 395.805 41.264C396.093 40.464 396.349 39.664 396.573 38.864C396.797 38.064 396.989 37.296 397.149 36.56C397.309 35.792 397.437 35.088 397.533 34.448C397.597 33.968 397.613 33.6 397.581 33.344C397.581 33.088 397.453 32.96 397.197 32.96C396.877 32.96 396.541 33.104 396.189 33.392C395.869 33.648 395.565 33.984 395.277 34.4C395.149 34.496 395.021 34.512 394.893 34.448C394.797 34.352 394.781 34.24 394.845 34.112C395.037 33.856 395.261 33.6 395.517 33.344C395.805 33.056 396.109 32.8 396.429 32.576C396.781 32.32 397.133 32.112 397.485 31.952C397.869 31.792 398.253 31.712 398.637 31.712C399.149 31.712 399.501 31.84 399.693 32.096C399.885 32.32 399.981 32.656 399.981 33.104ZM418.217 40.976C418.281 40.912 418.361 40.912 418.457 40.976C418.553 41.04 418.585 41.136 418.553 41.264C417.977 42.096 417.337 42.768 416.633 43.28C415.929 43.76 415.257 44 414.617 44C413.881 44 413.401 43.488 413.177 42.464C412.985 41.408 413.097 40.16 413.513 38.72C412.649 40.096 411.705 41.28 410.681 42.272C409.689 43.232 408.633 43.808 407.513 44C406.745 44 406.153 43.648 405.737 42.944C405.321 42.24 405.113 41.424 405.113 40.496C405.113 39.44 405.369 38.4 405.881 37.376C406.393 36.32 407.065 35.376 407.897 34.544C408.761 33.712 409.705 33.04 410.729 32.528C411.785 31.984 412.841 31.712 413.897 31.712C415.017 31.712 415.897 31.984 416.537 32.528C416.857 32.304 417.257 32.112 417.737 31.952C418.249 31.792 418.697 31.712 419.081 31.712C419.209 31.712 419.273 31.792 419.273 31.952C418.537 32.848 417.897 33.84 417.353 34.928C416.841 35.984 416.441 37.008 416.153 38C415.865 38.96 415.689 39.824 415.625 40.592C415.561 41.36 415.625 41.888 415.817 42.176C415.977 42.368 416.249 42.432 416.633 42.368C417.017 42.272 417.545 41.808 418.217 40.976ZM409.001 42.224C409.385 42.224 409.849 41.984 410.393 41.504C410.969 41.024 411.561 40.384 412.169 39.584C412.777 38.784 413.369 37.888 413.945 36.896C414.553 35.904 415.081 34.896 415.529 33.872C415.401 33.456 415.097 33.12 414.617 32.864C414.169 32.608 413.641 32.48 413.033 32.48C412.297 32.48 411.609 32.672 410.969 33.056C410.329 33.408 409.769 33.92 409.289 34.592C408.841 35.232 408.473 36.016 408.185 36.944C407.929 37.84 407.801 38.832 407.801 39.92C407.801 40.624 407.913 41.184 408.137 41.6C408.393 42.016 408.681 42.224 409.001 42.224ZM425.04 43.328C424.592 43.488 424.064 43.648 423.456 43.808C422.88 43.936 422.304 44 421.728 44C421.344 44 421.232 43.792 421.392 43.376C421.936 42.032 422.4 40.576 422.784 39.008C423.168 37.408 423.44 35.984 423.6 34.736C423.696 33.616 423.52 33.056 423.072 33.056C422.592 33.056 422 33.424 421.296 34.16C421.136 34.224 421.008 34.208 420.912 34.112C420.816 34.016 420.8 33.904 420.864 33.776C421.44 33.2 422.08 32.72 422.784 32.336C423.52 31.92 424.256 31.712 424.992 31.712C425.472 31.712 425.792 31.856 425.952 32.144C426.112 32.432 426.192 32.8 426.192 33.248C426.192 33.856 426.128 34.576 426 35.408C425.872 36.24 425.696 37.12 425.472 38.048C425.28 38.944 425.056 39.84 424.8 40.736C424.576 41.6 424.352 42.384 424.128 43.088C425.024 42.864 425.904 42.448 426.768 41.84C427.664 41.232 428.464 40.528 429.168 39.728C429.872 38.928 430.432 38.064 430.848 37.136C431.296 36.176 431.52 35.216 431.52 34.256C431.52 33.424 431.264 33.008 430.752 33.008C430.464 33.008 430.224 33.072 430.032 33.2C429.872 33.296 429.696 33.488 429.504 33.776C429.408 33.84 429.328 33.824 429.264 33.728C429.2 33.632 429.184 33.536 429.216 33.44C429.44 33.088 429.824 32.72 430.368 32.336C430.944 31.92 431.536 31.712 432.144 31.712C432.656 31.712 433.04 31.904 433.296 32.288C433.584 32.64 433.728 33.088 433.728 33.632C433.728 34.56 433.488 35.504 433.008 36.464C432.528 37.392 431.888 38.288 431.088 39.152C430.288 40.016 429.36 40.816 428.304 41.552C427.248 42.256 426.16 42.848 425.04 43.328ZM445.329 34.112C445.329 35.936 442.913 37.184 438.081 37.856C438.049 38.176 438.017 38.496 437.985 38.816C437.985 39.136 437.985 39.472 437.985 39.824C437.985 40.656 438.177 41.296 438.561 41.744C438.945 42.192 439.553 42.416 440.385 42.416C440.993 42.416 441.617 42.24 442.257 41.888C442.897 41.536 443.409 41.088 443.793 40.544C443.921 40.48 444.017 40.512 444.081 40.64C444.145 40.736 444.161 40.848 444.129 40.976C443.489 41.808 442.673 42.528 441.681 43.136C440.721 43.712 439.681 44 438.561 44C437.441 44 436.625 43.728 436.113 43.184C435.633 42.608 435.393 41.808 435.393 40.784C435.393 39.792 435.601 38.768 436.017 37.712C436.433 36.624 436.961 35.632 437.601 34.736C438.273 33.84 439.025 33.12 439.857 32.576C440.721 32 441.585 31.712 442.449 31.712C443.313 31.712 444.001 31.968 444.513 32.48C445.057 32.96 445.329 33.504 445.329 34.112ZM441.153 32.96C440.417 32.96 439.777 33.312 439.233 34.016C438.721 34.688 438.369 35.744 438.177 37.184C439.713 37.024 440.849 36.736 441.585 36.32C442.321 35.872 442.689 35.328 442.689 34.688C442.689 34.208 442.545 33.808 442.257 33.488C441.969 33.136 441.601 32.96 441.153 32.96ZM467.328 8.336C467.808 8.336 468.192 8.464 468.48 8.72C468.8 8.944 469.008 9.264 469.104 9.68C469.232 10.064 469.248 10.512 469.152 11.024C469.088 11.536 468.912 12.048 468.624 12.56C468.56 12.624 468.48 12.624 468.384 12.56C468.288 12.496 468.224 12.416 468.192 12.32C468.256 11.936 468.112 11.616 467.76 11.36C467.44 11.104 466.928 10.976 466.224 10.976C464.912 10.976 463.584 11.472 462.24 12.464C460.928 13.424 459.648 14.704 458.4 16.304C457.152 17.904 455.984 19.744 454.896 21.824C453.808 23.904 452.864 26.048 452.064 28.256C451.264 30.464 450.624 32.656 450.144 34.832C449.696 37.008 449.472 38.992 449.472 40.784C449.472 41.744 449.744 42.224 450.288 42.224C450.672 42.224 451.04 42.064 451.392 41.744C451.776 41.424 452.208 40.944 452.688 40.304C452.784 40.24 452.864 40.256 452.928 40.352C453.024 40.416 453.056 40.512 453.024 40.64C452.384 41.6 451.632 42.4 450.768 43.04C449.904 43.68 449.12 44 448.416 44C447.808 44 447.376 43.824 447.12 43.472C446.896 43.12 446.784 42.672 446.784 42.128C446.784 40.624 447.104 38.752 447.744 36.512C448.384 34.24 449.232 31.856 450.288 29.36C451.376 26.832 452.624 24.32 454.032 21.824C455.44 19.328 456.896 17.088 458.4 15.104C459.936 13.088 461.472 11.456 463.008 10.208C464.544 8.96 465.984 8.336 467.328 8.336Z" fill="white"/>
<path d="M2.88 51H10.32V37.272H24.96V30.792H10.32V21.72H27.36V15.24H2.88V51ZM55.0598 37.128C55.0598 29.88 49.3958 24.216 42.0518 24.216C34.5638 24.216 28.8038 30.024 28.8038 37.848C28.8038 45.432 34.2278 51.576 42.5318 51.576C47.9078 51.576 52.2278 49.032 53.8118 45.192L48.0518 42.456C47.0438 44.232 45.1718 45.336 42.6278 45.336C39.0758 45.336 36.7238 43.224 36.2918 39.912H54.7238C54.9637 39.192 55.0598 38.184 55.0598 37.128ZM36.4358 34.632C37.1558 31.608 39.2198 29.976 42.0518 29.976C45.0278 29.976 47.1398 31.848 47.4278 34.632H36.4358ZM82.7629 37.128C82.7629 29.88 77.0989 24.216 69.7549 24.216C62.2669 24.216 56.5069 30.024 56.5069 37.848C56.5069 45.432 61.9309 51.576 70.2349 51.576C75.6109 51.576 79.9309 49.032 81.5149 45.192L75.7549 42.456C74.7469 44.232 72.8749 45.336 70.3309 45.336C66.7789 45.336 64.4269 43.224 63.9949 39.912H82.4269C82.6669 39.192 82.7629 38.184 82.7629 37.128ZM64.1389 34.632C64.8589 31.608 66.9229 29.976 69.7549 29.976C72.7309 29.976 74.8429 31.848 75.1309 34.632H64.1389ZM105.042 15.24V27C103.266 25.224 100.626 24.216 97.506 24.216C90.066 24.216 84.21 30.216 84.21 37.896C84.21 45.528 89.922 51.576 97.554 51.576C100.77 51.576 103.65 50.52 105.522 48.504V51H112.242V15.24H105.042ZM98.418 45.096C94.482 45.096 91.65 42.12 91.65 37.896C91.65 33.72 94.482 30.696 98.418 30.696C102.306 30.696 105.042 33.672 105.042 37.896C105.042 42.168 102.306 45.096 98.418 45.096Z" fill="#00D7D7"/>
<path d="M141.872 31.704C143.648 29.976 144.416 27.912 144.416 25.704C144.416 19.128 140.048 15.24 132.656 15.24H117.536V51H132.656C140.96 51 145.904 46.92 145.904 39.864C145.904 36.744 145.04 33.864 141.872 31.704ZM124.976 21.48H133.184C135.488 21.48 136.976 22.92 136.976 25.08C136.976 27.24 135.488 28.68 133.184 28.68H124.976V21.48ZM133.52 44.52H124.976V35.16H133.52C136.496 35.16 138.464 37.032 138.464 39.864C138.464 42.648 136.496 44.52 133.52 44.52ZM160.864 24.216C155.296 24.216 150.784 27 149.248 31.32L155.44 34.296C156.208 31.944 158.32 30.456 160.864 30.456C163.264 30.456 164.896 31.752 164.896 33.72V34.584L156.688 36.312C151.36 37.416 148.288 39.96 148.288 43.848C148.288 48.216 152.032 51.576 157.984 51.576C161.008 51.576 163.408 50.664 165.376 48.6V51H172.096V33.72C172.096 28.104 167.536 24.216 160.864 24.216ZM159.088 46.296C157.024 46.296 155.728 45.336 155.728 43.752C155.728 42.552 156.496 41.64 157.984 41.304L164.896 39.768V41.016C164.896 43.944 162.352 46.296 159.088 46.296ZM188.363 51.576C194.315 51.576 199.115 48.216 200.603 43.56L194.459 40.536C193.643 43.32 191.339 45.096 188.363 45.096C184.571 45.096 181.931 42.12 181.931 37.896C181.931 33.672 184.571 30.696 188.363 30.696C191.291 30.696 193.643 32.472 194.459 35.256L200.603 32.28C199.019 27.432 194.219 24.216 188.363 24.216C180.443 24.216 174.491 30.072 174.491 37.848C174.491 45.672 180.491 51.576 188.363 51.576ZM228.502 24.792H220.102L210.694 34.728V15.24H203.494V51H210.694V44.424L214.342 40.488L220.678 51H228.502L218.998 35.352L228.502 24.792ZM239.505 51H246.945V37.272H261.585V30.792H246.945V21.72H263.985V15.24H239.505V51ZM279.445 51.576C287.221 51.576 293.461 45.816 293.461 37.896C293.461 29.976 287.221 24.216 279.445 24.216C271.669 24.216 265.429 29.976 265.429 37.896C265.429 45.816 271.669 51.576 279.445 51.576ZM279.445 45.096C275.509 45.096 272.869 42.12 272.869 37.896C272.869 33.72 275.509 30.696 279.445 30.696C283.381 30.696 286.021 33.72 286.021 37.896C286.021 42.12 283.381 45.096 279.445 45.096ZM310.646 24.504C307.43 24.504 304.886 25.464 303.542 28.728V24.792H296.822V51H304.022V36.888C304.022 33 306.422 30.744 309.926 30.744H313.382V24.504H310.646ZM345.651 24.216C342.099 24.216 339.171 25.848 337.683 28.248C336.003 25.608 333.219 24.216 329.859 24.216C326.691 24.216 324.243 25.464 322.995 27.96V24.792H316.275V51H323.475V35.688C323.475 32.472 325.203 30.696 327.747 30.696C330.291 30.696 332.019 32.472 332.019 35.688V51H339.219V35.688C339.219 32.472 340.947 30.696 343.491 30.696C346.035 30.696 347.763 32.472 347.763 35.688V51H354.963V34.152C354.963 28.104 351.123 24.216 345.651 24.216Z" fill="white"/>
</svg>
