<svg width="278" height="139" viewBox="0 0 278 139" fill="none" xmlns="http://www.w3.org/2000/svg">
<path d="M94 107.089C54.4721 95.3003 14.3333 97.9227 0 107.089V38.0894C72 -9.91063 205.167 -4.0773 278 10.0894C243.333 14.4227 220.5 27.0894 198.5 53.0894C173.962 82.0894 151 124.089 94 107.089Z" fill="#00D7D7"/>
<path d="M44.652 43.3274C42.8027 42.7954 41.3333 42.0987 40.244 41.2374C39.1547 40.3507 38.3693 39.3754 37.888 38.3114C37.4067 37.222 37.1913 36.0694 37.242 34.8534C37.2927 33.612 37.546 32.3834 38.002 31.1674C38.4833 29.926 39.1293 28.7227 39.94 27.5574C40.776 26.392 41.7007 25.328 42.714 24.3654C43.7527 23.4027 44.8547 22.5794 46.02 21.8954C47.2107 21.2114 48.4013 20.73 49.592 20.4514C50.96 20.1474 52.4927 20.1347 54.19 20.4134C55.9127 20.6667 57.7113 21.0847 59.586 21.6674C61.4607 22.2247 63.386 22.858 65.362 23.5674C67.338 24.2767 69.276 24.9227 71.176 25.5054C72.62 23.0734 74.2287 21.1354 76.002 19.6914C77.7753 18.2474 79.7767 17.5 82.006 17.4494C83.2473 17.424 84.2987 17.5507 85.16 17.8294C86.0467 18.108 86.7687 18.488 87.326 18.9694C87.8833 19.4507 88.2887 20.008 88.542 20.6414C88.8207 21.2747 88.96 21.9334 88.96 22.6174C88.9347 23.428 88.694 24.302 88.238 25.2394C87.8073 26.1767 87.2247 27.0507 86.49 27.8614C85.7553 28.6467 84.8813 29.3054 83.868 29.8374C82.88 30.3694 81.8287 30.61 80.714 30.5594C79.9793 30.5594 79.232 30.5214 78.472 30.4454C77.7373 30.3694 76.99 30.268 76.23 30.1414C75.2927 32.1174 74.4187 34.372 73.608 36.9054C72.7973 39.4387 72.0247 42.1367 71.29 44.9994C70.5553 47.8367 69.8207 50.788 69.086 53.8534C68.3767 56.8934 67.642 59.908 66.882 62.8974C66.122 65.8867 65.3113 68.7874 64.45 71.5994C63.614 74.4114 62.6893 77.008 61.676 79.3894C61.3213 80.2507 60.8653 81.2007 60.308 82.2394C59.7507 83.2527 59.1047 84.266 58.37 85.2794C57.6353 86.2927 56.8247 87.268 55.938 88.2054C55.0767 89.1427 54.1393 89.9534 53.126 90.6374C52.138 91.3467 51.0867 91.8914 49.972 92.2714C48.8827 92.6767 47.7553 92.8414 46.59 92.7654C44.8927 92.664 43.4107 92.3094 42.144 91.7014C40.9027 91.0934 39.8387 90.3587 38.952 89.4974C38.0907 88.636 37.3687 87.686 36.786 86.6474C36.2287 85.634 35.7853 84.6587 35.456 83.7214C35.1267 82.7587 34.886 81.8974 34.734 81.1374C34.582 80.352 34.4933 79.7694 34.468 79.3894C34.2653 77.388 34.316 75.5134 34.62 73.7654C34.8987 71.992 35.3547 70.4594 35.988 69.1674C36.6467 67.85 37.4447 66.8114 38.382 66.0514C39.3193 65.2914 40.3453 64.886 41.46 64.8354C42.4987 64.81 43.4107 64.9494 44.196 65.2534C45.0067 65.532 45.7033 65.9247 46.286 66.4314C46.894 66.938 47.388 67.5207 47.768 68.1794C48.1733 68.8127 48.49 69.446 48.718 70.0794C48.946 70.7127 49.098 71.308 49.174 71.8654C49.2753 72.4227 49.3133 72.8787 49.288 73.2334C49.1867 75.1587 48.8447 76.5647 48.262 77.4514C47.6793 78.338 46.9953 78.756 46.21 78.7054C45.45 78.6547 44.6773 78.1607 43.892 77.2234C43.132 76.286 42.5113 74.956 42.03 73.2334C41.802 72.372 41.5233 71.8274 41.194 71.5994C40.89 71.3714 40.5607 71.3714 40.206 71.5994C39.8767 71.8274 39.56 72.2454 39.256 72.8534C38.952 73.4614 38.686 74.1834 38.458 75.0194C38.23 75.83 38.0653 76.7167 37.964 77.6794C37.8627 78.642 37.8627 79.5794 37.964 80.4914C38.0653 81.6314 38.344 82.7967 38.8 83.9874C39.256 85.178 39.8513 86.242 40.586 87.1794C41.3207 88.142 42.1693 88.902 43.132 89.4594C44.12 90.0167 45.184 90.232 46.324 90.1054C47.7173 89.9787 48.984 89.2694 50.124 87.9774C51.264 86.6854 52.3153 84.988 53.278 82.8854C54.2407 80.7574 55.14 78.2874 55.976 75.4754C56.8373 72.6634 57.6607 69.674 58.446 66.5074C59.2567 63.3407 60.0547 60.06 60.84 56.6654C61.6507 53.2454 62.4867 49.8887 63.348 46.5954C64.2347 43.2767 65.172 40.0847 66.16 37.0194C67.1733 33.954 68.288 31.1674 69.504 28.6594C66.8693 27.9247 64.3613 27.19 61.98 26.4554C59.5987 25.6954 57.496 25.176 55.672 24.8974C54.1773 24.6694 52.632 24.72 51.036 25.0494C49.44 25.3787 47.9833 26.0374 46.666 27.0254C45.374 28.0134 44.3227 29.3687 43.512 31.0914C42.7013 32.7887 42.334 34.904 42.41 37.4374C42.41 37.7667 42.448 38.1847 42.524 38.6914C42.6253 39.1727 42.7647 39.692 42.942 40.2494C43.1193 40.8067 43.3473 41.364 43.626 41.9214C43.9047 42.4534 44.2467 42.922 44.652 43.3274ZM83.298 22.8074C82.2847 23.01 81.3347 23.466 80.448 24.1754C79.5867 24.8847 78.776 25.8094 78.016 26.9494C79.004 27.0254 79.9287 27.0254 80.79 26.9494C81.6767 26.848 82.5 26.62 83.26 26.2654C83.9947 26.012 84.628 25.6447 85.16 25.1634C85.7173 24.6567 86.0593 24.2007 86.186 23.7954C86.3127 23.3647 86.1607 23.0354 85.73 22.8074C85.3247 22.5794 84.514 22.5794 83.298 22.8074ZM78.7995 82.7334C79.4075 82.8094 80.0408 82.6194 80.6995 82.1634C81.3581 81.7074 82.0295 81.074 82.7135 80.2634C83.3975 79.4527 84.0688 78.5154 84.7275 77.4514C85.4115 76.3874 86.0575 75.298 86.6655 74.1834C87.2735 73.0434 87.8435 71.916 88.3755 70.8014C88.9328 69.6614 89.4141 68.6354 89.8195 67.7234C90.2248 66.8114 90.5541 66.0514 90.8075 65.4434C91.0861 64.81 91.2508 64.43 91.3015 64.3034C91.6561 63.5687 91.9728 63.1254 92.2515 62.9734C92.5555 62.796 92.7835 62.8214 92.9355 63.0494C93.1128 63.252 93.2015 63.6194 93.2015 64.1514C93.2015 64.658 93.0748 65.2407 92.8215 65.8994C92.5175 66.9634 92.0741 68.2047 91.4915 69.6234C90.9341 71.0167 90.2755 72.4607 89.5155 73.9554C88.7808 75.45 87.9701 76.932 87.0835 78.4014C86.1968 79.8707 85.2721 81.188 84.3095 82.3534C83.3721 83.5187 82.4095 84.4687 81.4215 85.2034C80.4335 85.938 79.4835 86.3307 78.5715 86.3814C78.0901 86.4067 77.5201 86.3307 76.8615 86.1534C76.2028 85.976 75.5568 85.6087 74.9235 85.0514C74.3155 84.494 73.7835 83.7087 73.3275 82.6954C72.8715 81.682 72.5928 80.352 72.4915 78.7054C72.4661 78.224 72.5168 77.578 72.6435 76.7674C72.7701 75.9314 72.9475 75.0447 73.1755 74.1074C73.4035 73.1447 73.6568 72.182 73.9355 71.2194C74.2141 70.2567 74.4675 69.3954 74.6955 68.6354C74.9488 67.85 75.1641 67.2167 75.3415 66.7354C75.5188 66.2287 75.6201 65.9754 75.6455 65.9754C75.6708 65.9754 75.4681 65.9754 75.0375 65.9754C74.6321 65.95 74.1381 65.8107 73.5555 65.5574C72.9981 65.2787 72.4535 64.8227 71.9215 64.1894C71.3895 63.5307 71.0348 62.568 70.8575 61.3014C70.7815 60.7187 70.7941 60.022 70.8955 59.2114C71.0221 58.4007 71.1995 57.552 71.4275 56.6654C71.6808 55.7787 71.9848 54.9047 72.3395 54.0434C72.7195 53.1567 73.1248 52.3587 73.5555 51.6494C74.0115 50.94 74.4928 50.3447 74.9995 49.8634C75.5315 49.382 76.0635 49.1034 76.5955 49.0274C77.2541 48.926 77.8115 48.9514 78.2675 49.1034C78.7488 49.2554 79.1288 49.4834 79.4075 49.7874C79.6861 50.066 79.8761 50.408 79.9775 50.8134C80.0788 51.2187 80.0915 51.6367 80.0155 52.0674C79.9395 52.498 79.7241 53.1314 79.3695 53.9674C79.0148 54.8034 78.6348 55.6394 78.2295 56.4754C77.7735 57.4634 77.2541 58.502 76.6715 59.5914C77.7101 59.2114 78.6728 58.8567 79.5595 58.5274C80.3195 58.2487 81.0795 57.9827 81.8395 57.7294C82.5995 57.4507 83.1821 57.2734 83.5875 57.1974C84.0941 57.096 84.4868 57.2354 84.7655 57.6154C85.0695 57.97 85.2721 58.4134 85.3735 58.9454C85.4748 59.4774 85.4875 60.0347 85.4115 60.6174C85.3355 61.1747 85.1835 61.6054 84.9555 61.9094C84.3728 62.72 83.7268 63.7714 83.0175 65.0634C82.3335 66.33 81.6748 67.6854 81.0415 69.1294C80.4081 70.5734 79.8381 72.0427 79.3315 73.5374C78.8248 75.032 78.4321 76.4127 78.1535 77.6794C77.9001 78.946 77.8115 80.0354 77.8875 80.9474C77.9635 81.8594 78.2675 82.4547 78.7995 82.7334ZM87.353 76.2734C87.277 75.412 87.3023 74.3607 87.429 73.1194C87.5303 71.878 87.771 70.586 88.151 69.2434C88.5057 67.9007 88.987 66.558 89.595 65.2154C90.2283 63.8474 91.001 62.6187 91.913 61.5294C92.8503 60.44 93.927 59.528 95.143 58.7934C96.3843 58.0334 97.7903 57.59 99.361 57.4634C100.02 57.3874 100.653 57.6027 101.261 58.1094C101.894 58.5907 102.35 59.376 102.629 60.4654C102.857 59.376 102.996 58.6414 103.047 58.2614C103.072 57.8814 103.212 57.666 103.465 57.6154C103.744 57.5647 104.06 57.6534 104.415 57.8814C104.795 58.084 105.188 58.4007 105.593 58.8314C105.998 59.2367 106.378 59.718 106.733 60.2754C107.088 60.8074 107.366 61.39 107.569 62.0234C107.797 62.6314 107.911 63.2394 107.911 63.8474C107.911 64.05 107.822 64.468 107.645 65.1014C107.493 65.7094 107.29 66.4567 107.037 67.3434C106.809 68.23 106.543 69.2054 106.239 70.2694C105.935 71.308 105.644 72.3467 105.365 73.3854C105.086 74.424 104.82 75.4247 104.567 76.3874C104.339 77.35 104.162 78.186 104.035 78.8954C103.756 80.2127 103.718 80.96 103.921 81.1374C104.124 81.2894 104.554 81.0867 105.213 80.5294C106.1 79.82 106.974 78.9334 107.835 77.8694C108.722 76.78 109.558 75.6274 110.343 74.4114C111.128 73.17 111.85 71.9287 112.509 70.6874C113.193 69.4207 113.788 68.268 114.295 67.2294C114.802 66.1654 115.22 65.266 115.549 64.5314C115.878 63.7967 116.081 63.3407 116.157 63.1634C116.486 62.4287 116.79 61.9854 117.069 61.8334C117.373 61.656 117.601 61.6814 117.753 61.9094C117.93 62.112 118.019 62.4794 118.019 63.0114C118.019 63.518 117.892 64.1007 117.639 64.7594C117.31 65.646 116.841 66.7607 116.233 68.1034C115.625 69.446 114.903 70.8774 114.067 72.3974C113.231 73.892 112.306 75.3994 111.293 76.9194C110.28 78.4394 109.228 79.8074 108.139 81.0234C107.05 82.214 105.922 83.1894 104.757 83.9494C103.617 84.7094 102.49 85.0894 101.375 85.0894C101.147 85.0894 100.868 85.0514 100.539 84.9754C100.21 84.874 99.8803 84.7094 99.551 84.4814C99.2217 84.2534 98.9177 83.9367 98.639 83.5314C98.3857 83.126 98.183 82.6067 98.031 81.9734C97.1443 82.86 96.169 83.4807 95.105 83.8354C94.0663 84.1647 93.1417 84.304 92.331 84.2534C91.4443 84.1774 90.697 83.8354 90.089 83.2274C89.481 82.6194 88.987 81.8974 88.607 81.0614C88.227 80.2254 87.9357 79.364 87.733 78.4774C87.5303 77.5907 87.4037 76.856 87.353 76.2734ZM101.793 63.9994C101.692 63.2647 101.514 62.682 101.261 62.2514C101.008 61.8207 100.716 61.58 100.387 61.5294C99.779 61.4534 99.1077 61.8334 98.373 62.6694C97.6383 63.48 96.9417 64.5947 96.283 66.0134C95.6243 67.4067 95.0543 69.0027 94.573 70.8014C94.0917 72.6 93.8003 74.424 93.699 76.2734C93.699 76.476 93.7117 76.8307 93.737 77.3374C93.7877 77.844 93.8763 78.3507 94.003 78.8574C94.155 79.364 94.3323 79.82 94.535 80.2254C94.763 80.6054 95.0417 80.7954 95.371 80.7954C95.7003 80.7954 96.055 80.5547 96.435 80.0734C96.8403 79.592 97.2203 79.06 97.575 78.4774C97.9803 77.7934 98.373 77.008 98.753 76.1214L98.791 76.1594L101.793 63.9994ZM115.307 58.2614C115.281 57.7294 115.421 57.4634 115.725 57.4634C116.029 57.438 116.409 57.59 116.865 57.9194C117.346 58.2487 117.853 58.7047 118.385 59.2874C118.942 59.8447 119.436 60.4274 119.867 61.0354C120.297 61.618 120.639 62.1754 120.893 62.7074C121.146 63.214 121.209 63.594 121.083 63.8474C120.956 64.1007 120.766 64.7467 120.513 65.7854C120.259 66.7987 119.993 68.002 119.715 69.3954C119.436 70.7887 119.183 72.258 118.955 73.8034C118.752 75.3234 118.625 76.7294 118.575 78.0214C118.524 79.288 118.587 80.3394 118.765 81.1754C118.967 81.986 119.335 82.366 119.867 82.3154C120.88 82.214 121.792 81.7327 122.603 80.8714C123.439 80.01 124.161 78.908 124.769 77.5654C125.402 76.1974 125.947 74.652 126.403 72.9294C126.859 71.2067 127.226 69.446 127.505 67.6474C126.719 66.9127 126.01 65.874 125.377 64.5314C124.743 63.1887 124.249 61.466 123.895 59.3634C123.844 58.9834 123.793 58.4767 123.743 57.8434C123.692 57.1847 123.667 56.4627 123.667 55.6774C123.667 54.892 123.705 54.0814 123.781 53.2454C123.882 52.4094 124.034 51.6114 124.237 50.8514C124.439 50.0914 124.718 49.4074 125.073 48.7994C125.453 48.1914 125.921 47.7227 126.479 47.3934C126.859 47.1654 127.289 47.2034 127.771 47.5074C128.252 47.8114 128.695 48.318 129.101 49.0274C129.531 49.7367 129.899 50.6234 130.203 51.6874C130.532 52.7514 130.735 53.942 130.811 55.2594C130.912 56.8554 130.912 58.6034 130.811 60.5034C130.735 62.378 130.557 64.3034 130.279 66.2794C130.76 66.3807 131.241 66.3554 131.723 66.2034C132.204 66.0514 132.673 65.8107 133.129 65.4814C133.585 65.1267 134.015 64.7087 134.421 64.2274C134.851 63.7207 135.231 63.1634 135.561 62.5554C135.662 62.3527 135.839 62.2767 136.093 62.3274C136.371 62.378 136.637 62.5047 136.891 62.7074C137.144 62.8847 137.347 63.1254 137.499 63.4294C137.676 63.708 137.727 63.9994 137.651 64.3034C137.423 65.0634 137.043 65.7854 136.511 66.4694C135.979 67.1534 135.358 67.7234 134.649 68.1794C133.939 68.6354 133.167 68.952 132.331 69.1294C131.495 69.3067 130.659 69.2687 129.823 69.0154C129.443 71.194 128.936 73.284 128.303 75.2854C127.669 77.2867 126.922 79.0474 126.061 80.5674C125.199 82.0874 124.211 83.2907 123.097 84.1774C122.007 85.0387 120.791 85.4187 119.449 85.3174C118.638 85.2667 117.84 85.0387 117.055 84.6334C116.269 84.2027 115.573 83.62 114.965 82.8854C114.357 82.1254 113.875 81.226 113.521 80.1874C113.141 79.1487 112.963 77.9834 112.989 76.6914C112.989 76.21 113.052 75.5007 113.179 74.5634C113.305 73.6007 113.457 72.524 113.635 71.3334C113.837 70.1427 114.04 68.9014 114.243 67.6094C114.445 66.292 114.623 65.038 114.775 63.8474C114.952 62.6314 115.091 61.542 115.193 60.5794C115.294 59.5914 115.332 58.8187 115.307 58.2614ZM125.909 58.4894C126.137 59.9334 126.415 61.1494 126.745 62.1374C127.099 63.1254 127.492 63.936 127.923 64.5694C128.1 62.8214 128.214 61.162 128.265 59.5914C128.315 57.9954 128.303 56.602 128.227 55.4114C128.151 54.2207 128.011 53.296 127.809 52.6374C127.606 51.9787 127.353 51.7 127.049 51.8014C126.719 51.928 126.453 52.156 126.251 52.4854C126.048 52.8147 125.896 53.2074 125.795 53.6634C125.719 54.094 125.668 54.55 125.643 55.0314C125.643 55.5127 125.655 55.9814 125.681 56.4374C125.706 56.8934 125.744 57.3114 125.795 57.6914C125.845 58.046 125.883 58.312 125.909 58.4894ZM158.032 63.6574C157.626 64.848 157.069 66.2287 156.36 67.7994C155.65 69.37 154.827 70.9914 153.89 72.6634C152.952 74.31 151.926 75.944 150.812 77.5654C149.722 79.1614 148.595 80.58 147.43 81.8214C146.264 83.0374 145.086 84.0127 143.896 84.7474C142.73 85.482 141.616 85.8114 140.552 85.7354C138.956 85.634 137.613 85.254 136.524 84.5954C135.46 83.9367 134.611 83.126 133.978 82.1634C133.319 81.2007 132.85 80.162 132.572 79.0474C132.268 77.9327 132.09 76.856 132.04 75.8174C131.888 73.436 132.128 71.1687 132.762 69.0154C133.395 66.8367 134.282 64.9114 135.422 63.2394C136.562 61.5674 137.854 60.2374 139.298 59.2494C140.767 58.236 142.249 57.704 143.744 57.6534C144.96 57.6027 145.897 57.7674 146.556 58.1474C147.24 58.5274 147.734 58.996 148.038 59.5534C148.367 60.1107 148.544 60.706 148.57 61.3394C148.62 61.9727 148.633 62.5174 148.608 62.9734C148.481 64.62 148.038 66.0767 147.278 67.3434C146.518 68.5847 145.644 69.6614 144.656 70.5734C143.693 71.4854 142.718 72.2327 141.73 72.8154C140.742 73.3727 139.956 73.778 139.374 74.0314C139.07 75.526 138.918 76.9954 138.918 78.4394C138.943 79.706 139.108 80.7067 139.412 81.4414C139.741 82.1507 140.311 82.442 141.122 82.3154C141.73 82.214 142.388 81.9987 143.098 81.6694C143.807 81.3147 144.529 80.8714 145.264 80.3394C145.998 79.782 146.72 79.1234 147.43 78.3634C148.164 77.578 148.861 76.6914 149.52 75.7034C150.229 74.6394 150.938 73.4487 151.648 72.1314C152.382 70.814 153.066 69.5094 153.7 68.2174C154.333 66.9254 154.89 65.7347 155.372 64.6454C155.878 63.5307 156.258 62.6694 156.512 62.0614C156.866 61.3267 157.183 60.8834 157.462 60.7314C157.766 60.554 157.994 60.5794 158.146 60.8074C158.323 61.0354 158.412 61.4154 158.412 61.9474C158.412 62.454 158.285 63.024 158.032 63.6574ZM145.682 60.8454C145.302 60.9467 144.871 61.2887 144.39 61.8714C143.908 62.454 143.402 63.2014 142.87 64.1134C142.363 65.0254 141.869 66.0767 141.388 67.2674C140.906 68.4327 140.476 69.674 140.096 70.9914C140.83 70.738 141.565 70.282 142.3 69.6234C143.06 68.9647 143.744 68.2427 144.352 67.4574C144.985 66.6467 145.504 65.8234 145.91 64.9874C146.34 64.1514 146.594 63.404 146.67 62.7454C146.72 62.5174 146.733 62.2767 146.708 62.0234C146.682 61.77 146.632 61.5547 146.556 61.3774C146.48 61.1747 146.366 61.0227 146.214 60.9214C146.062 60.82 145.884 60.7947 145.682 60.8454ZM171.04 33.7134C172.129 33.6374 173.016 33.8527 173.7 34.3594C174.384 34.866 174.903 35.4994 175.258 36.2594C175.613 37.0194 175.828 37.83 175.904 38.6914C176.005 39.5274 176.018 40.2494 175.942 40.8574C175.537 44.556 174.751 47.7987 173.586 50.5854C172.446 53.3467 171.154 55.69 169.71 57.6154C168.291 59.5407 166.835 61.0607 165.34 62.1754C163.871 63.2647 162.604 63.9994 161.54 64.3794C161.109 66.406 160.767 68.5087 160.514 70.6874C160.261 72.8407 160.147 75.0827 160.172 77.4134C160.172 77.9454 160.197 78.49 160.248 79.0474C160.299 79.5794 160.375 80.0607 160.476 80.4914C160.603 80.8967 160.755 81.2387 160.932 81.5174C161.135 81.7707 161.363 81.8974 161.616 81.8974C162.047 81.8974 162.553 81.6314 163.136 81.0994C163.744 80.5674 164.377 79.8707 165.036 79.0094C165.695 78.148 166.366 77.16 167.05 76.0454C167.759 74.9307 168.443 73.7907 169.102 72.6254C169.761 71.46 170.381 70.32 170.964 69.2054C171.572 68.0907 172.104 67.09 172.56 66.2034C173.016 65.2914 173.383 64.544 173.662 63.9614C173.941 63.3787 174.105 63.062 174.156 63.0114C174.333 62.7327 174.511 62.5554 174.688 62.4794C174.891 62.4034 175.068 62.4287 175.22 62.5554C175.372 62.6567 175.486 62.8594 175.562 63.1634C175.638 63.4674 175.638 63.86 175.562 64.3414C175.537 64.4427 175.385 64.8354 175.106 65.5194C174.853 66.178 174.485 67.014 174.004 68.0274C173.523 69.0154 172.953 70.1427 172.294 71.4094C171.661 72.676 170.964 73.9554 170.204 75.2474C169.444 76.5394 168.633 77.806 167.772 79.0474C166.936 80.2634 166.075 81.3527 165.188 82.3154C164.327 83.2527 163.453 84.0127 162.566 84.5954C161.679 85.178 160.818 85.4694 159.982 85.4694C159.526 85.4694 158.943 85.3554 158.234 85.1274C157.55 84.8994 156.879 84.418 156.22 83.6834C155.587 82.9487 155.042 81.8974 154.586 80.5294C154.155 79.1614 153.94 77.3374 153.94 75.0574C153.94 73.4614 154.054 71.65 154.282 69.6234C154.51 67.5967 154.827 65.4814 155.232 63.2774C155.663 61.0734 156.169 58.8187 156.752 56.5134C157.36 54.208 158.044 51.9787 158.804 49.8254C159.564 47.672 160.387 45.6327 161.274 43.7074C162.186 41.782 163.161 40.0974 164.2 38.6534C165.239 37.2094 166.328 36.044 167.468 35.1574C168.608 34.2707 169.799 33.7894 171.04 33.7134ZM171.268 41.0094C170.711 41.8707 170.039 42.9727 169.254 44.3154C168.494 45.6327 167.696 47.178 166.86 48.9514C166.024 50.6994 165.188 52.65 164.352 54.8034C163.541 56.9567 162.819 59.262 162.186 61.7194C163.275 61.238 164.428 60.326 165.644 58.9834C166.885 57.6407 168.076 56.0067 169.216 54.0814C170.356 52.1307 171.382 49.952 172.294 47.5454C173.206 45.1387 173.877 42.6054 174.308 39.9454C174.435 39.16 174.384 38.7167 174.156 38.6154C173.928 38.514 173.637 38.59 173.282 38.8434C172.927 39.0967 172.547 39.4514 172.142 39.9074C171.762 40.338 171.471 40.7054 171.268 41.0094Z" fill="white"/>
</svg>
