<svg width="561" height="188" viewBox="0 0 561 188" fill="none" xmlns="http://www.w3.org/2000/svg">
<path d="M2.88 37H10.32V23.272H24.96V16.792H10.32V7.72H27.36V1.24H2.88V37ZM30.7125 8.44H37.9125V1.24H30.7125V8.44ZM30.7125 37H37.9125V10.792H30.7125V37ZM42.7125 37H49.9125V1.24H42.7125V37ZM54.7125 37H61.9125V1.24H54.7125V37ZM93.5295 11.128L86.5695 29.416L79.6095 11.128H73.3215L83.4975 36.904L82.6335 38.92C81.9615 40.504 81.0975 42.424 77.7855 42.424C76.7775 42.424 75.5295 42.232 74.8095 42.04V46.888C75.8655 47.368 77.2095 47.56 78.6015 47.56C85.1295 47.56 87.1455 42.856 88.2975 40.024L99.8175 11.128H93.5295ZM114.678 37.576C122.214 37.576 128.262 31.864 128.262 24.04C128.262 16.216 122.262 10.552 114.678 10.552C107.046 10.552 101.094 16.216 101.094 24.04C101.094 31.864 107.094 37.576 114.678 37.576ZM114.678 32.248C110.262 32.248 107.094 28.84 107.094 24.088C107.094 19.336 110.262 15.88 114.678 15.88C119.046 15.88 122.262 19.336 122.262 24.088C122.262 28.84 119.046 32.248 114.678 32.248ZM148.619 11.128V26.488C148.619 29.992 146.411 32.248 143.147 32.248C139.835 32.248 137.627 29.992 137.627 26.488V11.128H131.867V27.208C131.867 33.16 135.898 37.576 141.659 37.576C144.827 37.576 147.467 36.28 148.907 34.024V37H154.379V11.128H148.619ZM172.388 10.84C169.22 10.84 166.724 11.896 165.38 14.728V11.128H159.956V37H165.716V22.36C165.716 18.328 168.116 16.024 171.668 16.024H174.788V10.84H172.388ZM186.815 37H192.575V1.24H186.815V37ZM197.92 7.72H203.68V1.24H197.92V7.72ZM197.92 37H203.68V11.128H197.92V37ZM211.29 37H217.05V16.312H222.906V11.128H217.05V9.64C217.05 7 218.73 5.608 221.466 5.608C221.898 5.608 222.666 5.656 223.242 5.752V0.759997C222.618 0.615999 221.514 0.519998 220.746 0.519998C215.082 0.519998 211.29 3.832 211.29 9.64V11.128H206.634V16.312H211.29V37ZM249.718 23.128C249.718 16.264 244.534 10.552 237.238 10.552C229.942 10.552 224.422 16.264 224.422 24.04C224.422 31.624 229.846 37.576 237.67 37.576C242.95 37.576 247.174 34.888 248.758 31.192L244.006 28.888C242.854 31 240.79 32.488 237.718 32.488C233.734 32.488 230.71 29.848 230.422 25.72H249.43C249.622 24.952 249.718 24.04 249.718 23.128ZM230.518 21.256C231.19 17.464 233.878 15.352 237.238 15.352C240.55 15.352 243.334 17.8 243.526 21.256H230.518ZM293.735 11.128L288.311 28.504L282.839 11.128H276.455L270.983 28.504L265.511 11.128H259.415L268.343 37H273.527L279.671 18.472L285.767 37H290.903L299.879 11.128H293.735ZM302.873 7.72H308.633V1.24H302.873V7.72ZM302.873 37H308.633V11.128H302.873V37ZM325.651 37.288C326.563 37.288 327.715 37.192 328.627 37.048V32.44C328.003 32.536 327.379 32.584 326.899 32.584C323.251 32.584 322.339 30.52 322.339 28.312V16.312H328.483V11.128H322.339V3.112H316.579V7.24C316.579 9.736 315.139 11.128 312.643 11.128H311.875V16.312H316.579V28.312C316.579 34.024 319.843 37.288 325.651 37.288ZM345.458 10.552C342.482 10.552 339.938 11.656 338.45 13.672V1.24H332.69V37H338.45V21.64C338.45 18.136 340.658 15.88 343.97 15.88C347.234 15.88 349.442 18.136 349.442 21.64V37H355.202V20.2C355.202 14.488 351.218 10.552 345.458 10.552ZM306.394 85.552C302.89 85.552 299.962 86.8 298.138 88.96V76.24H292.378V112H297.802V108.928C299.674 111.28 302.794 112.576 306.346 112.576C313.738 112.576 319.45 106.72 319.45 99.088C319.45 91.408 313.69 85.552 306.394 85.552ZM305.77 107.248C301.306 107.248 298.138 103.888 298.138 99.088C298.138 94.336 301.306 90.88 305.77 90.88C310.186 90.88 313.45 94.336 313.45 99.088C313.45 103.84 310.186 107.248 305.77 107.248ZM340.889 86.128L333.929 104.416L326.969 86.128H320.681L330.857 111.904L329.993 113.92C329.321 115.504 328.457 117.424 325.145 117.424C324.137 117.424 322.889 117.232 322.169 117.04V121.888C323.225 122.368 324.569 122.56 325.961 122.56C332.489 122.56 334.505 117.856 335.657 115.024L347.177 86.128H340.889ZM370.464 112.288C371.376 112.288 372.528 112.192 373.44 112.048V107.44C372.816 107.536 372.192 107.584 371.712 107.584C368.064 107.584 367.152 105.52 367.152 103.312V91.312H373.296V86.128H367.152V78.112H361.392V82.24C361.392 84.736 359.952 86.128 357.456 86.128H356.688V91.312H361.392V103.312C361.392 109.024 364.656 112.288 370.464 112.288ZM389.935 85.84C386.767 85.84 384.271 86.896 382.927 89.728V86.128H377.503V112H383.263V97.36C383.263 93.328 385.663 91.024 389.215 91.024H392.335V85.84H389.935ZM406.389 85.552C401.253 85.552 396.933 88.288 395.445 92.224L400.437 94.72C401.397 92.272 403.605 90.736 406.389 90.736C409.269 90.736 411.237 92.32 411.237 94.72V95.536L402.741 97.36C397.509 98.512 394.485 101.056 394.485 104.896C394.485 109.312 398.133 112.576 403.893 112.576C407.013 112.576 409.653 111.424 411.573 109.12V112H416.997V94.72C416.997 89.344 412.677 85.552 406.389 85.552ZM404.565 108.016C402.069 108.016 400.485 106.816 400.485 104.848C400.485 103.264 401.733 102.016 403.893 101.536L411.237 99.904V101.584C411.237 105.232 408.405 108.016 404.565 108.016ZM438.183 86.128L431.511 104.32L424.839 86.128H418.743L428.919 112H434.055L444.279 86.128H438.183ZM470.828 98.128C470.828 91.264 465.644 85.552 458.348 85.552C451.052 85.552 445.532 91.264 445.532 99.04C445.532 106.624 450.956 112.576 458.78 112.576C464.06 112.576 468.284 109.888 469.868 106.192L465.116 103.888C463.964 106 461.9 107.488 458.828 107.488C454.844 107.488 451.82 104.848 451.532 100.72H470.54C470.732 99.952 470.828 99.04 470.828 98.128ZM451.628 96.256C452.3 92.464 454.988 90.352 458.348 90.352C461.66 90.352 464.444 92.8 464.636 96.256H451.628ZM474.487 112H480.247V76.24H474.487V112ZM485.784 112H491.544V76.24H485.784V112ZM496.889 82.72H502.649V76.24H496.889V82.72ZM496.889 112H502.649V86.128H496.889V112ZM520.771 85.552C517.555 85.552 514.867 86.848 513.427 89.248V86.128H508.003V112H513.763V96.64C513.763 93.136 515.971 90.88 519.283 90.88C522.547 90.88 524.755 93.136 524.755 96.64V112H530.515V95.2C530.515 89.536 526.531 85.552 520.771 85.552ZM555.1 86.128V89.248C553.276 86.944 550.396 85.552 546.844 85.552C540.028 85.552 534.172 90.544 534.172 98.08C534.172 105.472 539.932 110.704 546.94 110.704C550.156 110.704 552.94 109.6 554.812 107.536V110.752C554.812 114.832 551.596 117.328 547.564 117.328C544.06 117.328 541.708 115.408 540.796 112.768L535.804 115.264C537.436 119.632 541.948 122.608 547.612 122.608C554.812 122.608 560.572 117.808 560.572 110.752V86.128H555.1ZM547.516 105.376C543.244 105.376 540.172 102.4 540.172 98.128C540.172 93.808 543.388 90.88 547.468 90.88C551.644 90.88 554.812 93.856 554.812 98.128C554.812 102.352 551.788 105.376 547.516 105.376ZM14.448 187.288C15.36 187.288 16.512 187.192 17.424 187.048V182.44C16.8 182.536 16.176 182.584 15.696 182.584C12.048 182.584 11.136 180.52 11.136 178.312V166.312H17.28V161.128H11.136V153.112H5.376V157.24C5.376 159.736 3.936 161.128 1.44 161.128H0.672V166.312H5.376V178.312C5.376 184.024 8.64 187.288 14.448 187.288ZM34.2551 160.552C31.2791 160.552 28.7351 161.656 27.2471 163.672V151.24H21.4871V187H27.2471V171.64C27.2471 168.136 29.4551 165.88 32.7671 165.88C36.0311 165.88 38.2391 168.136 38.2391 171.64V187H43.9991V170.2C43.9991 164.488 40.0151 160.552 34.2551 160.552ZM72.9525 173.128C72.9525 166.264 67.7685 160.552 60.4725 160.552C53.1765 160.552 47.6565 166.264 47.6565 174.04C47.6565 181.624 53.0805 187.576 60.9045 187.576C66.1845 187.576 70.4085 184.888 71.9925 181.192L67.2405 178.888C66.0885 181 64.0245 182.488 60.9525 182.488C56.9685 182.488 53.9445 179.848 53.6565 175.72H72.6645C72.8565 174.952 72.9525 174.04 72.9525 173.128ZM53.7525 171.256C54.4245 167.464 57.1125 165.352 60.4725 165.352C63.7845 165.352 66.5685 167.8 66.7605 171.256H53.7525ZM116.97 161.128L111.546 178.504L106.074 161.128H99.6896L94.2176 178.504L88.7456 161.128H82.6496L91.5776 187H96.7616L102.906 168.472L109.002 187H114.138L123.114 161.128H116.97ZM139.068 160.552C136.092 160.552 133.548 161.656 132.06 163.672V151.24H126.3V187H132.06V171.64C132.06 168.136 134.268 165.88 137.58 165.88C140.844 165.88 143.052 168.136 143.052 171.64V187H148.812V170.2C148.812 164.488 144.828 160.552 139.068 160.552ZM166.053 187.576C173.589 187.576 179.637 181.864 179.637 174.04C179.637 166.216 173.637 160.552 166.053 160.552C158.421 160.552 152.469 166.216 152.469 174.04C152.469 181.864 158.469 187.576 166.053 187.576ZM166.053 182.248C161.637 182.248 158.469 178.84 158.469 174.088C158.469 169.336 161.637 165.88 166.053 165.88C170.421 165.88 173.637 169.336 173.637 174.088C173.637 178.84 170.421 182.248 166.053 182.248ZM183.722 187H189.482V151.24H183.722V187ZM218.874 173.128C218.874 166.264 213.69 160.552 206.394 160.552C199.098 160.552 193.578 166.264 193.578 174.04C193.578 181.624 199.002 187.576 206.826 187.576C212.106 187.576 216.33 184.888 217.914 181.192L213.162 178.888C212.01 181 209.946 182.488 206.874 182.488C202.89 182.488 199.866 179.848 199.578 175.72H218.586C218.778 174.952 218.874 174.04 218.874 173.128ZM199.674 171.256C200.346 167.464 203.034 165.352 206.394 165.352C209.706 165.352 212.49 167.8 212.682 171.256H199.674Z" fill="white"/>
<path d="M27.216 98.128C27.216 90.88 21.552 85.216 14.208 85.216C6.72 85.216 0.96 91.024 0.96 98.848C0.96 106.432 6.384 112.576 14.688 112.576C20.064 112.576 24.384 110.032 25.968 106.192L20.208 103.456C19.2 105.232 17.328 106.336 14.784 106.336C11.232 106.336 8.88 104.224 8.448 100.912H26.88C27.12 100.192 27.216 99.184 27.216 98.128ZM8.592 95.632C9.312 92.608 11.376 90.976 14.208 90.976C17.184 90.976 19.296 92.848 19.584 95.632H8.592ZM54.4504 85.792H46.0984L40.9624 93.28L35.8264 85.792H27.4744L36.7384 98.848L27.5224 112H35.9224L40.9624 104.464L46.0024 112H54.3544L45.1864 98.848L54.4504 85.792ZM71.8391 85.216C68.4791 85.216 65.6471 86.416 63.8231 88.528V85.792H57.1031V121.6H64.3031V109.936C66.0791 111.568 68.7191 112.576 71.7911 112.576C79.3751 112.576 85.1351 106.528 85.1351 98.896C85.1351 91.216 79.2791 85.216 71.8391 85.216ZM70.9271 106.096C67.0391 106.096 64.3031 103.12 64.3031 98.896C64.3031 94.672 67.0391 91.696 70.9271 91.696C74.8631 91.696 77.6951 94.72 77.6951 98.896C77.6951 103.072 74.8631 106.096 70.9271 106.096ZM113.325 98.128C113.325 90.88 107.661 85.216 100.317 85.216C92.8294 85.216 87.0694 91.024 87.0694 98.848C87.0694 106.432 92.4934 112.576 100.797 112.576C106.173 112.576 110.493 110.032 112.077 106.192L106.317 103.456C105.309 105.232 103.437 106.336 100.893 106.336C97.3414 106.336 94.9894 104.224 94.5574 100.912H112.989C113.229 100.192 113.325 99.184 113.325 98.128ZM94.7014 95.632C95.4214 92.608 97.4854 90.976 100.317 90.976C103.293 90.976 105.405 92.848 105.693 95.632H94.7014ZM130.037 85.504C126.821 85.504 124.277 86.464 122.933 89.728V85.792H116.213V112H123.413V97.888C123.413 94 125.812 91.744 129.317 91.744H132.773V85.504H130.037ZM135.666 83.44H142.866V76.24H135.666V83.44ZM135.666 112H142.866V85.792H135.666V112ZM172.482 98.128C172.482 90.88 166.818 85.216 159.474 85.216C151.986 85.216 146.226 91.024 146.226 98.848C146.226 106.432 151.65 112.576 159.954 112.576C165.33 112.576 169.65 110.032 171.234 106.192L165.474 103.456C164.466 105.232 162.594 106.336 160.05 106.336C156.498 106.336 154.146 104.224 153.714 100.912H172.146C172.386 100.192 172.482 99.184 172.482 98.128ZM153.858 95.632C154.578 92.608 156.642 90.976 159.474 90.976C162.45 90.976 164.562 92.848 164.85 95.632H153.858ZM189.433 85.216C186.121 85.216 183.433 86.416 182.089 88.96V85.792H175.369V112H182.569V96.688C182.569 93.664 184.537 91.696 187.369 91.696C190.201 91.696 192.169 93.664 192.169 96.688V112H199.369V95.152C199.369 89.2 195.337 85.216 189.433 85.216ZM216.113 112.576C222.065 112.576 226.865 109.216 228.353 104.56L222.209 101.536C221.393 104.32 219.089 106.096 216.113 106.096C212.321 106.096 209.681 103.12 209.681 98.896C209.681 94.672 212.321 91.696 216.113 91.696C219.041 91.696 221.393 93.472 222.209 96.256L228.353 93.28C226.769 88.432 221.969 85.216 216.113 85.216C208.193 85.216 202.241 91.072 202.241 98.848C202.241 106.672 208.241 112.576 216.113 112.576ZM256.06 98.128C256.06 90.88 250.396 85.216 243.052 85.216C235.564 85.216 229.804 91.024 229.804 98.848C229.804 106.432 235.228 112.576 243.532 112.576C248.908 112.576 253.228 110.032 254.812 106.192L249.052 103.456C248.044 105.232 246.172 106.336 243.628 106.336C240.076 106.336 237.724 104.224 237.292 100.912H255.724C255.964 100.192 256.06 99.184 256.06 98.128ZM237.436 95.632C238.156 92.608 240.22 90.976 243.052 90.976C246.028 90.976 248.14 92.848 248.428 95.632H237.436ZM269.555 112.576C275.843 112.576 280.211 109.264 280.211 104.416C280.211 100.672 277.715 97.984 273.059 96.736L268.211 95.44C267.347 95.2 265.523 94.72 265.523 93.136C265.523 91.792 266.771 90.976 268.883 90.976C271.715 90.976 273.971 92.32 274.835 94.576L280.211 92.08C278.531 87.808 274.259 85.216 268.883 85.216C262.739 85.216 258.563 88.528 258.563 93.376C258.563 96.976 260.867 99.76 265.619 101.008L270.227 102.208C271.139 102.448 273.251 102.976 273.251 104.704C273.251 106.144 271.811 107.056 269.555 107.056C266.579 107.056 264.227 105.472 262.835 102.544L257.507 105.04C259.139 109.792 263.843 112.576 269.555 112.576Z" fill="#FFE249"/>
<path d="M263.655 160.792L258.855 176.44L253.767 160.792H245.751L240.663 176.44L235.815 160.792H228.375L237.399 187H243.735L249.783 169.528L255.783 187H262.119L271.143 160.792H263.655ZM285.632 187.576C293.408 187.576 299.648 181.816 299.648 173.896C299.648 165.976 293.408 160.216 285.632 160.216C277.856 160.216 271.616 165.976 271.616 173.896C271.616 181.816 277.856 187.576 285.632 187.576ZM285.632 181.096C281.696 181.096 279.056 178.12 279.056 173.896C279.056 169.72 281.696 166.696 285.632 166.696C289.568 166.696 292.208 169.72 292.208 173.896C292.208 178.12 289.568 181.096 285.632 181.096ZM316.833 160.504C313.617 160.504 311.073 161.464 309.729 164.728V160.792H303.009V187H310.209V172.888C310.209 169 312.609 166.744 316.113 166.744H319.569V160.504H316.833ZM322.463 187H329.663V151.24H322.463V187ZM353.855 151.24V163C352.079 161.224 349.439 160.216 346.319 160.216C338.879 160.216 333.023 166.216 333.023 173.896C333.023 181.528 338.735 187.576 346.367 187.576C349.583 187.576 352.463 186.52 354.335 184.504V187H361.055V151.24H353.855ZM347.231 181.096C343.295 181.096 340.463 178.12 340.463 173.896C340.463 169.72 343.295 166.696 347.231 166.696C351.119 166.696 353.855 169.672 353.855 173.896C353.855 178.168 351.119 181.096 347.231 181.096ZM366.589 187H373.789V179.8H366.589V187Z" fill="#00D7D7"/>
</svg>
